<mxfile host="app.diagrams.net" modified="2023-07-11T23:44:42.284Z" agent="Mozilla/5.0 (Windows NT 10.0; Win64; x64) AppleWebKit/537.36 (KHTML, like Gecko) Chrome/114.0.0.0 Safari/537.36" etag="Rweg-QPHRvGbkaAhhNvK" version="21.6.2" type="github">
  <diagram id="C5RBs43oDa-KdzZeNtuy" name="Page-1">
    <mxGraphModel dx="1687" dy="899" grid="0" gridSize="10" guides="1" tooltips="1" connect="1" arrows="1" fold="1" page="1" pageScale="1" pageWidth="827" pageHeight="1169" math="0" shadow="0">
      <root>
        <mxCell id="WIyWlLk6GJQsqaUBKTNV-0" />
        <mxCell id="WIyWlLk6GJQsqaUBKTNV-1" parent="WIyWlLk6GJQsqaUBKTNV-0" />
        <mxCell id="vd7d9DH4cLBxCQMPpCkD-4" style="edgeStyle=orthogonalEdgeStyle;rounded=0;orthogonalLoop=1;jettySize=auto;html=1;exitX=0.5;exitY=1;exitDx=0;exitDy=0;entryX=0.5;entryY=0;entryDx=0;entryDy=0;" edge="1" parent="WIyWlLk6GJQsqaUBKTNV-1" source="WIyWlLk6GJQsqaUBKTNV-3" target="vd7d9DH4cLBxCQMPpCkD-0">
          <mxGeometry relative="1" as="geometry" />
        </mxCell>
        <mxCell id="WIyWlLk6GJQsqaUBKTNV-3" value="getOneColor(chameleons, firstColor, secondColor, thridColor)" style="rounded=1;whiteSpace=wrap;html=1;fontSize=12;glass=0;strokeWidth=1;shadow=0;" parent="WIyWlLk6GJQsqaUBKTNV-1" vertex="1">
          <mxGeometry x="51" y="18" width="339" height="40" as="geometry" />
        </mxCell>
        <mxCell id="vd7d9DH4cLBxCQMPpCkD-12" value="No" style="edgeStyle=orthogonalEdgeStyle;rounded=0;orthogonalLoop=1;jettySize=auto;html=1;" edge="1" parent="WIyWlLk6GJQsqaUBKTNV-1" source="WIyWlLk6GJQsqaUBKTNV-6">
          <mxGeometry x="0.187" y="13" relative="1" as="geometry">
            <mxPoint x="340" y="219" as="targetPoint" />
            <mxPoint as="offset" />
          </mxGeometry>
        </mxCell>
        <mxCell id="vd7d9DH4cLBxCQMPpCkD-15" value="Yes" style="edgeStyle=orthogonalEdgeStyle;rounded=0;orthogonalLoop=1;jettySize=auto;html=1;" edge="1" parent="WIyWlLk6GJQsqaUBKTNV-1" source="WIyWlLk6GJQsqaUBKTNV-6" target="vd7d9DH4cLBxCQMPpCkD-14">
          <mxGeometry x="0.5273" y="-14" relative="1" as="geometry">
            <mxPoint as="offset" />
          </mxGeometry>
        </mxCell>
        <mxCell id="WIyWlLk6GJQsqaUBKTNV-6" value="firstColor != 0?" style="rhombus;whiteSpace=wrap;html=1;shadow=0;fontFamily=Helvetica;fontSize=12;align=center;strokeWidth=1;spacing=6;spacingTop=-4;" parent="WIyWlLk6GJQsqaUBKTNV-1" vertex="1">
          <mxGeometry x="161.5" y="176" width="117" height="86" as="geometry" />
        </mxCell>
        <mxCell id="vd7d9DH4cLBxCQMPpCkD-5" value="Yes" style="edgeStyle=orthogonalEdgeStyle;rounded=0;orthogonalLoop=1;jettySize=auto;html=1;exitX=0.5;exitY=1;exitDx=0;exitDy=0;entryX=0.5;entryY=0;entryDx=0;entryDy=0;" edge="1" parent="WIyWlLk6GJQsqaUBKTNV-1" source="vd7d9DH4cLBxCQMPpCkD-0" target="WIyWlLk6GJQsqaUBKTNV-6">
          <mxGeometry x="-0.0286" y="-19" relative="1" as="geometry">
            <mxPoint as="offset" />
          </mxGeometry>
        </mxCell>
        <mxCell id="vd7d9DH4cLBxCQMPpCkD-0" value="while not (firstColor == 0 and secondColor == 0)" style="rounded=1;whiteSpace=wrap;html=1;" vertex="1" parent="WIyWlLk6GJQsqaUBKTNV-1">
          <mxGeometry x="81" y="87" width="278" height="60" as="geometry" />
        </mxCell>
        <mxCell id="vd7d9DH4cLBxCQMPpCkD-13" value="chameleons = chameleonsMeet(chameleons, secondColor, thridColor)" style="rounded=1;whiteSpace=wrap;html=1;fontSize=12;glass=0;strokeWidth=1;shadow=0;" vertex="1" parent="WIyWlLk6GJQsqaUBKTNV-1">
          <mxGeometry x="339" y="199" width="387" height="40" as="geometry" />
        </mxCell>
        <mxCell id="vd7d9DH4cLBxCQMPpCkD-17" value="No" style="edgeStyle=orthogonalEdgeStyle;rounded=0;orthogonalLoop=1;jettySize=auto;html=1;" edge="1" parent="WIyWlLk6GJQsqaUBKTNV-1" source="vd7d9DH4cLBxCQMPpCkD-14" target="vd7d9DH4cLBxCQMPpCkD-16">
          <mxGeometry x="0.1652" y="13" relative="1" as="geometry">
            <mxPoint x="1" as="offset" />
          </mxGeometry>
        </mxCell>
        <mxCell id="vd7d9DH4cLBxCQMPpCkD-22" value="" style="edgeStyle=orthogonalEdgeStyle;rounded=0;orthogonalLoop=1;jettySize=auto;html=1;" edge="1" parent="WIyWlLk6GJQsqaUBKTNV-1" source="vd7d9DH4cLBxCQMPpCkD-14">
          <mxGeometry relative="1" as="geometry">
            <mxPoint x="220.02857142857147" y="404" as="targetPoint" />
          </mxGeometry>
        </mxCell>
        <mxCell id="vd7d9DH4cLBxCQMPpCkD-23" value="Yes" style="edgeLabel;html=1;align=center;verticalAlign=middle;resizable=0;points=[];" vertex="1" connectable="0" parent="vd7d9DH4cLBxCQMPpCkD-22">
          <mxGeometry x="-0.7143" y="1" relative="1" as="geometry">
            <mxPoint x="-18" y="4" as="offset" />
          </mxGeometry>
        </mxCell>
        <mxCell id="vd7d9DH4cLBxCQMPpCkD-14" value="secondColor != 0?" style="rhombus;whiteSpace=wrap;html=1;shadow=0;fontFamily=Helvetica;fontSize=12;align=center;strokeWidth=1;spacing=6;spacingTop=-4;" vertex="1" parent="WIyWlLk6GJQsqaUBKTNV-1">
          <mxGeometry x="161.5" y="287" width="117" height="86" as="geometry" />
        </mxCell>
        <mxCell id="vd7d9DH4cLBxCQMPpCkD-16" value="chameleons = chameleonsMeet(chameleons, firstColor, thridColor)" style="rounded=1;whiteSpace=wrap;html=1;fontSize=12;glass=0;strokeWidth=1;shadow=0;" vertex="1" parent="WIyWlLk6GJQsqaUBKTNV-1">
          <mxGeometry x="336" y="310" width="387" height="40" as="geometry" />
        </mxCell>
        <mxCell id="vd7d9DH4cLBxCQMPpCkD-32" value="" style="edgeStyle=orthogonalEdgeStyle;rounded=0;orthogonalLoop=1;jettySize=auto;html=1;" edge="1" parent="WIyWlLk6GJQsqaUBKTNV-1" source="vd7d9DH4cLBxCQMPpCkD-24" target="vd7d9DH4cLBxCQMPpCkD-31">
          <mxGeometry relative="1" as="geometry" />
        </mxCell>
        <mxCell id="vd7d9DH4cLBxCQMPpCkD-24" value="chameleons = chameleonsMeet(chameleons, firstColor, secondColor)" style="rounded=1;whiteSpace=wrap;html=1;fontSize=12;glass=0;strokeWidth=1;shadow=0;" vertex="1" parent="WIyWlLk6GJQsqaUBKTNV-1">
          <mxGeometry x="27" y="403" width="387" height="40" as="geometry" />
        </mxCell>
        <mxCell id="vd7d9DH4cLBxCQMPpCkD-44" value="" style="edgeStyle=orthogonalEdgeStyle;rounded=0;orthogonalLoop=1;jettySize=auto;html=1;" edge="1" parent="WIyWlLk6GJQsqaUBKTNV-1" source="vd7d9DH4cLBxCQMPpCkD-31">
          <mxGeometry relative="1" as="geometry">
            <mxPoint x="219" y="498" as="targetPoint" />
          </mxGeometry>
        </mxCell>
        <mxCell id="vd7d9DH4cLBxCQMPpCkD-45" value="Yes" style="edgeLabel;html=1;align=center;verticalAlign=middle;resizable=0;points=[];" vertex="1" connectable="0" parent="vd7d9DH4cLBxCQMPpCkD-44">
          <mxGeometry x="0.2308" y="-2" relative="1" as="geometry">
            <mxPoint x="-12" y="90" as="offset" />
          </mxGeometry>
        </mxCell>
        <mxCell id="vd7d9DH4cLBxCQMPpCkD-48" value="" style="edgeStyle=orthogonalEdgeStyle;rounded=0;orthogonalLoop=1;jettySize=auto;html=1;" edge="1" parent="WIyWlLk6GJQsqaUBKTNV-1" source="vd7d9DH4cLBxCQMPpCkD-31" target="vd7d9DH4cLBxCQMPpCkD-47">
          <mxGeometry relative="1" as="geometry" />
        </mxCell>
        <mxCell id="vd7d9DH4cLBxCQMPpCkD-31" value="if cycle?" style="rhombus;whiteSpace=wrap;html=1;" vertex="1" parent="WIyWlLk6GJQsqaUBKTNV-1">
          <mxGeometry x="172.5" y="475" width="95" height="80" as="geometry" />
        </mxCell>
        <mxCell id="vd7d9DH4cLBxCQMPpCkD-38" value="No" style="endArrow=none;html=1;rounded=0;" edge="1" parent="WIyWlLk6GJQsqaUBKTNV-1">
          <mxGeometry x="0.9413" y="9" width="50" height="50" relative="1" as="geometry">
            <mxPoint x="13" y="116" as="sourcePoint" />
            <mxPoint x="172.5" y="515" as="targetPoint" />
            <Array as="points">
              <mxPoint x="15" y="517" />
            </Array>
            <mxPoint as="offset" />
          </mxGeometry>
        </mxCell>
        <mxCell id="vd7d9DH4cLBxCQMPpCkD-40" value="" style="endArrow=classic;html=1;rounded=0;entryX=0;entryY=0.367;entryDx=0;entryDy=0;entryPerimeter=0;" edge="1" parent="WIyWlLk6GJQsqaUBKTNV-1">
          <mxGeometry width="50" height="50" relative="1" as="geometry">
            <mxPoint x="13" y="116.58" as="sourcePoint" />
            <mxPoint x="81" y="116.59999999999998" as="targetPoint" />
          </mxGeometry>
        </mxCell>
        <mxCell id="vd7d9DH4cLBxCQMPpCkD-50" value="Yes" style="edgeStyle=orthogonalEdgeStyle;rounded=0;orthogonalLoop=1;jettySize=auto;html=1;" edge="1" parent="WIyWlLk6GJQsqaUBKTNV-1" source="vd7d9DH4cLBxCQMPpCkD-47" target="vd7d9DH4cLBxCQMPpCkD-49">
          <mxGeometry x="-0.2308" y="-12" relative="1" as="geometry">
            <mxPoint x="-4" y="4" as="offset" />
          </mxGeometry>
        </mxCell>
        <mxCell id="vd7d9DH4cLBxCQMPpCkD-52" value="No" style="edgeStyle=orthogonalEdgeStyle;rounded=0;orthogonalLoop=1;jettySize=auto;html=1;" edge="1" parent="WIyWlLk6GJQsqaUBKTNV-1" source="vd7d9DH4cLBxCQMPpCkD-47" target="vd7d9DH4cLBxCQMPpCkD-51">
          <mxGeometry x="0.0224" y="11" relative="1" as="geometry">
            <mxPoint as="offset" />
          </mxGeometry>
        </mxCell>
        <mxCell id="vd7d9DH4cLBxCQMPpCkD-47" value="if firstcolor == 0 and &lt;br&gt;secondColor == 0?" style="rhombus;whiteSpace=wrap;html=1;" vertex="1" parent="WIyWlLk6GJQsqaUBKTNV-1">
          <mxGeometry x="140.25" y="581" width="159.5" height="97" as="geometry" />
        </mxCell>
        <mxCell id="vd7d9DH4cLBxCQMPpCkD-49" value="return true" style="rounded=1;whiteSpace=wrap;html=1;" vertex="1" parent="WIyWlLk6GJQsqaUBKTNV-1">
          <mxGeometry x="168" y="704" width="104" height="48" as="geometry" />
        </mxCell>
        <mxCell id="vd7d9DH4cLBxCQMPpCkD-51" value="return false" style="rounded=1;whiteSpace=wrap;html=1;" vertex="1" parent="WIyWlLk6GJQsqaUBKTNV-1">
          <mxGeometry x="339" y="605.5" width="104" height="48" as="geometry" />
        </mxCell>
      </root>
    </mxGraphModel>
  </diagram>
</mxfile>
